<svg xmlns="http://www.w3.org/2000/svg" width="35.127" height="35.127" viewBox="0 0 35.127 35.127"><defs><style>.a{fill:#d5d5ff;fill-rule:evenodd;}</style></defs><path class="a" d="M17.563,0A17.563,17.563,0,1,1,0,17.563,17.572,17.572,0,0,1,17.563,0ZM27.816,26.82v-.346l-1.6-1.575a.48.48,0,0,1-.183-.461V12.862a.48.48,0,0,1,.183-.461l1.643-1.575V10.48H22.166L18.111,20.595,13.5,10.48H7.532v.346l1.922,2.315a.8.8,0,0,1,.259.672v9.1a1.047,1.047,0,0,1-.279.9L7.272,26.435v.346H13.4v-.346l-2.162-2.622a1.085,1.085,0,0,1-.3-.9V15.043l5.381,11.738h.625L21.57,15.043V24.4c0,.25,0,.3-.163.461l-1.662,1.614v.346h8.071Z"/></svg>