<svg xmlns="http://www.w3.org/2000/svg" width="118.139" height="107" viewBox="0 0 118.139 107"><defs><style>.a,.c{fill:none;}.a,.b,.d{stroke:#000;}.a,.b,.c,.d{stroke-miterlimit:10;stroke-width:2px;}.b{fill:#f37753;}.c{stroke:#c4c4c4;}.d{fill:#53d3c0;}</style></defs><g transform="translate(1 1)"><g transform="translate(0)"><line class="a" y1="85" transform="translate(64 21)"/><line class="a" y2="85" transform="translate(0 21)"/><path class="a" d="M310,139.3A21.285,21.285,0,0,1,331.3,118" transform="translate(-310.001 -118)"/><path class="a" d="M370,139.3A21.285,21.285,0,0,1,391.3,118" transform="translate(-306.107 -118)"/><path class="b" d="M393.9,118a21.285,21.285,0,0,1,21.3,21.3H351.3A21.285,21.285,0,0,0,330,118Z" transform="translate(-308.703 -118)"/><g transform="translate(10.472 42.596)"><line class="c" x2="31.947"/><line class="c" x2="31.947" transform="translate(0 5.325)"/><line class="c" x2="31.947" transform="translate(0 10.649)"/><line class="c" x2="31.947" transform="translate(0 15.974)"/><line class="c" x2="31.947" transform="translate(0 21.298)"/><line class="c" x2="31.947" transform="translate(0 26.623)"/><line class="c" x2="31.947" transform="translate(0 31.947)"/><line class="c" x2="31.947" transform="translate(0 37.272)"/></g><g transform="translate(42.596 26.623)"><path class="d" d="M350,201.569a10.642,10.642,0,0,0,10.649,10.649h63.893a10.643,10.643,0,0,1-10.649-10.649h0V143H350v58.57" transform="translate(-350.001 -143)"/><line class="a" x2="21" transform="translate(21.404 11.377)"/><line class="a" x2="42.951" transform="translate(10.472 15.974)"/><line class="a" x2="42.951" transform="translate(10.472 21.298)"/><line class="a" x2="42.951" transform="translate(10.472 26.623)"/><line class="a" x2="42.951" transform="translate(10.472 31.947)"/><line class="a" x2="42.951" transform="translate(10.472 37.272)"/><line class="a" x2="42.951" transform="translate(10.472 42.596)"/><line class="a" x2="42.951" transform="translate(10.472 47.921)"/><line class="a" x2="42.951" transform="translate(10.472 53.245)"/></g></g></g></svg>