<svg xmlns="http://www.w3.org/2000/svg" width="134.809" height="115.745" viewBox="0 0 134.809 115.745"><defs><style>.a{fill:#ff7652;}.b{fill:#fff;}.c,.d,.e{fill:none;stroke-linecap:round;stroke-width:2px;}.c{stroke:#a8a0a2;stroke-linejoin:round;}.d{stroke:#524a4d;}.d,.e{stroke-miterlimit:10;}.e{stroke:#000;}</style></defs><g transform="translate(0 1)"><path class="a" d="M134.809,44.492S103.468,73.979,67.4,73.979,0,44.492,0,44.489,31.341,15,67.4,15,134.809,44.492,134.809,44.492Z" transform="translate(0 6.064)"/><ellipse class="b" cx="16.977" cy="16.552" rx="16.977" ry="16.552" transform="translate(50.428 33.954)"/><path class="c" d="M26.857,34.691A10.832,10.832,0,0,1,37.69,23.858" transform="translate(29.714 15.864)"/><path class="d" d="M24.1,52.763A23.171,23.171,0,1,1,67.341,41.171c0,21.062-23.17,27.381-23.17,42.128v8.423" transform="translate(23.234 9.384)"/><line class="e" y1="10.186" transform="translate(67.404)"/><line class="e" x1="4.244" y1="10.186" transform="translate(40.241 4.244)"/><line class="e" y1="10.186" x2="4.244" transform="translate(90.323 4.244)"/><line class="e" x1="6.791" y1="8.488" transform="translate(16.474 14.43)"/><line class="e" y1="8.488" x2="6.791" transform="translate(111.544 14.43)"/><line class="d" y2="4.244" transform="translate(67.404 109.501)"/></g></svg>