<svg xmlns="http://www.w3.org/2000/svg" width="136" height="119" viewBox="0 0 136 119"><defs><style>.a{fill:#ff7652;}.b{fill:#736b6d;}.c{fill:#fff;}.d{fill:#a8a0a2;}.e{fill:#53d3c0;}.f,.h{fill:none;stroke-miterlimit:10;stroke-width:2px;}.f{stroke:#524a4d;}.g{fill:#e2dddf;}.h{stroke:#a8a0a2;}</style></defs><ellipse class="a" cx="9" cy="8.5" rx="9" ry="8.5" transform="translate(59.143)"/><rect class="b" width="26" height="8" transform="translate(55.143 15)"/><path class="b" d="M50.5,61.375H29.25L25,57.125V55H54.75v2.125Z" transform="translate(28.125 53.375)"/><g transform="translate(0 31.858)"><rect class="c" width="116" height="77" transform="translate(10.143 0.142)"/><path class="d" d="M131.75,64.5H4.25L0,60.25V56H53.125l4.25,4.25h21.25L82.875,56H136v4.25Z" transform="translate(0 22.642)"/><rect class="e" width="102" height="64" transform="translate(17.143 6.142)"/></g><path class="f" d="M87.875,19h29.75a2.126,2.126,0,0,1,2.125,2.125V95.5H5V21.125A2.126,2.126,0,0,1,7.125,19h29.75" transform="translate(5.625 12.875)"/><path class="g" d="M21,91.5,33.75,78.75v-51l-8.5-8.5V15H63.5v4.25L55,27.75v51L67.75,91.5Z" transform="translate(23.625 8.375)"/><path class="f" d="M21,91.5,33.75,78.75v-51l-8.5-8.5V15H63.5v4.25L55,27.75v51L67.75,91.5" transform="translate(23.625 8.375)"/><line class="f" x2="15" transform="translate(64.143 37)"/><line class="f" x2="15" transform="translate(64.143 87)"/><line class="h" y2="4" transform="translate(67.143 60)"/><line class="h" y2="4" transform="translate(67.143 51)"/><line class="h" y2="4" transform="translate(67.143 68)"/><line class="f" x2="34" transform="translate(51.143 15)"/><line class="f" x2="102" transform="translate(17.143 100)"/></svg>