<svg xmlns="http://www.w3.org/2000/svg" width="22.113" height="17.375" viewBox="0 0 22.113 17.375"><defs><style>.a{fill:#5554c3;fill-rule:evenodd;}</style></defs><path class="a" d="M2398.113,1694.426v-9.477a3.95,3.95,0,0,0-3.949-3.949h-14.216a3.95,3.95,0,0,0-3.949,3.949v9.477a3.95,3.95,0,0,0,3.949,3.949h14.216A3.95,3.95,0,0,0,2398.113,1694.426Zm-1.58-8.648v8.648a2.366,2.366,0,0,1-2.369,2.369h-14.216a2.366,2.366,0,0,1-2.369-2.369v-8.648l7.258,4.936a3.956,3.956,0,0,0,4.438,0Zm-.2-1.777a2.366,2.366,0,0,0-2.172-1.422h-14.216a2.367,2.367,0,0,0-2.172,1.422l7.945,5.4a2.356,2.356,0,0,0,2.669,0Z" transform="translate(-2376 -1681)"/></svg>