<svg xmlns="http://www.w3.org/2000/svg" width="119.537" height="113.745" viewBox="0 0 119.537 113.745"><defs><style>.a{fill:#a8a0a2;}.b{fill:#ff7652;}.c{fill:none;stroke:#524a4d;stroke-miterlimit:10;stroke-width:2px;}.d{fill:#736b6d;}.e{fill:#e2dddf;}.f{fill:#fff;}</style></defs><g transform="translate(1)"><g transform="translate(17.062)"><path class="a" d="M413.958,1293.583l-9.479,3.792L395,1293.583V1286h18.958Z" transform="translate(-362.772 -1248.085)"/><path class="b" d="M436.768,1294.9l-1.9-1.9-7.583,7.583-7.583-5.687-7.583,5.687L404.541,1293l-1.9,1.9c-15.166,9.479-24.645,11-24.645,22.749v28.436h83.413v-28.436C461.413,1305.9,451.934,1304.374,436.768,1294.9Z" transform="translate(-378 -1241.815)"/><path class="a" d="M392.9,1275a1.9,1.9,0,0,0-1.9,1.9v5.687a1.9,1.9,0,0,0,3.792,0V1276.9A1.9,1.9,0,0,0,392.9,1275Z" transform="translate(-366.355 -1257.938)"/><path class="a" d="M408.9,1275a1.9,1.9,0,0,0-1.9,1.9v5.687a1.9,1.9,0,0,0,3.792,0V1276.9A1.9,1.9,0,0,0,408.9,1275Z" transform="translate(-352.023 -1257.938)"/><line class="c" x2="3.669" transform="translate(39.872 66.046)"/><path class="d" d="M392,1279.27v5.687h0c3.792,0,5.687-9.479,5.687-9.479s3.792,5.688,9.479,5.688h9.479c3.792,0,5.687,3.791,5.687,3.791v-5.687c0-7.583-5.687-13.271-15.166-13.271a8.3,8.3,0,0,0-5.687,1.9S392,1267.9,392,1279.27Z" transform="translate(-365.459 -1266)"/><path class="e" d="M414.749,1303.27l-7.583-5.687-7.583,5.687L392,1295.687l5.687-5.687,9.479,3.792,9.479-3.792,5.687,5.687Z" transform="translate(-365.459 -1244.502)"/><path class="c" d="M422.332,1293l-7.583,7.583-7.583-5.687-7.583,5.687L392,1293" transform="translate(-365.459 -1241.815)"/><path class="e" d="M422.332,1280.479v3.791s0,7.583-3.791,13.27-7.583,7.583-11.375,7.583-7.583-1.9-11.374-7.583S392,1284.27,392,1284.27v-3.791h0c3.792,0,5.687-9.479,5.687-9.479s3.792,5.688,9.479,5.688h9.479C420.436,1276.688,422.332,1280.479,422.332,1280.479Z" transform="translate(-365.459 -1261.521)"/></g><g transform="translate(0 73.934)"><path class="a" d="M473.266,1316l13.27,7.583v11.374H369v-11.374L382.27,1316h11.374l13.27,7.583h0L422.081,1316h11.375l15.166,7.583h0l13.27-7.583Z" transform="translate(-369 -1295.147)"/><path class="c" d="M403,1316l15.166,7.583h0l13.27-7.583" transform="translate(-338.544 -1295.147)"/><path class="c" d="M382,1316l13.27,7.583h0L410.436,1316" transform="translate(-357.355 -1295.147)"/><line class="c" y2="7.338" transform="translate(37.67 28.803)"/><path class="c" d="M369,1334.957v-11.374L382.27,1316" transform="translate(-369 -1295.147)"/><path class="c" d="M437.27,1334.957v-11.374L424,1316" transform="translate(-319.734 -1295.147)"/><line class="c" y2="7.338" transform="translate(79.866 28.803)"/><path class="f" d="M434.957,1314.479c0-3.792-1.9-9.479-9.479-9.479s-9.479,5.687-9.479,9.479v1.9c0,5.687,3.792,11.374,9.479,11.374s9.479-5.687,9.479-11.374Z" transform="translate(-326.9 -1305)"/><path class="c" d="M434.957,1314.479c0-3.792-1.9-9.479-9.479-9.479s-9.479,5.687-9.479,9.479v1.9c0,5.687,3.792,11.374,9.479,11.374s9.479-5.687,9.479-11.374Z" transform="translate(-326.9 -1305)"/><path class="f" d="M413.958,1314.479c0-3.792-1.9-9.479-9.479-9.479s-9.479,5.687-9.479,9.479v1.9c0,5.687,3.791,11.374,9.479,11.374s9.479-5.687,9.479-11.374Z" transform="translate(-345.71 -1305)"/><path class="c" d="M413.958,1314.479c0-3.792-1.9-9.479-9.479-9.479s-9.479,5.687-9.479,9.479v1.9c0,5.687,3.791,11.374,9.479,11.374s9.479-5.687,9.479-11.374Z" transform="translate(-345.71 -1305)"/><path class="f" d="M392.958,1314.479c0-3.792-1.9-9.479-9.479-9.479s-9.479,5.687-9.479,9.479v1.9c0,5.687,3.792,11.374,9.479,11.374s9.479-5.687,9.479-11.374Z" transform="translate(-364.521 -1305)"/><path class="c" d="M392.958,1314.479c0-3.792-1.9-9.479-9.479-9.479s-9.479,5.687-9.479,9.479v1.9c0,5.687,3.792,11.374,9.479,11.374s9.479-5.687,9.479-11.374Z" transform="translate(-364.521 -1305)"/></g></g></svg>