<svg xmlns="http://www.w3.org/2000/svg" width="104" height="119" viewBox="0 0 104 119"><defs><style>.a{fill:#e2dddf;}.b{fill:#ff7652;}.c,.d{fill:none;stroke-miterlimit:10;stroke-width:2px;}.c{stroke:#524a4d;}.d{stroke:#e2dddf;}.e{fill:#75dbd0;}</style></defs><g transform="translate(33.406 65.578)"><rect class="a" width="22" height="13" transform="translate(7.594 40.422)"/><path class="b" d="M1459.75,2323h-22.312a7.438,7.438,0,0,0-7.437,7.438v39.047h7.438v-5.578h22.313v5.578h7.438v-39.047A7.438,7.438,0,0,0,1459.75,2323Z" transform="translate(-1430 -2323)"/><line class="c" y2="7" transform="translate(18.594 46.422)"/><line class="c" y2="4" transform="translate(18.594 7.422)"/><line class="c" y2="42" transform="translate(7.594 11.422)"/><line class="c" y1="42" transform="translate(29.594 11.422)"/><line class="c" x2="22" transform="translate(7.594 40.422)"/></g><ellipse class="a" cx="7" cy="7.5" rx="7" ry="7.5" transform="translate(45 45)"/><ellipse class="c" cx="7" cy="7.5" rx="7" ry="7.5" transform="translate(45 45)"/><g transform="translate(-0.063 0.5)"><line class="d" x2="26.031" y2="14.955" transform="translate(13.016 29.75)"/><line class="d" y1="30" transform="translate(52.063 7.5)"/><line class="d" x1="30" transform="translate(7.063 52.5)"/><line class="d" x2="15" y2="26" transform="translate(30.063 13.5)"/><line class="d" x1="26.031" y2="14.955" transform="translate(13.016 59.5)"/><ellipse class="e" cx="7" cy="7.5" rx="7" ry="7.5" transform="translate(6.063 66.5)"/><circle class="e" cx="7.5" cy="7.5" r="7.5" transform="translate(0.063 44.5)"/><ellipse class="e" cx="7" cy="7.5" rx="7" ry="7.5" transform="translate(6.063 22.5)"/><circle class="e" cx="7.5" cy="7.5" r="7.5" transform="translate(22.063 5.5)"/><line class="d" x1="26.031" y2="14.955" transform="translate(65.078 29.75)"/><line class="d" x2="30" transform="translate(67.063 52.5)"/><line class="d" x1="15" y2="26" transform="translate(59.063 13.5)"/><line class="d" x2="26.031" y2="14.955" transform="translate(65.078 59.5)"/><ellipse class="e" cx="7" cy="7.5" rx="7" ry="7.5" transform="translate(84.063 66.5)"/><circle class="e" cx="7.5" cy="7.5" r="7.5" transform="translate(89.063 44.5)"/><ellipse class="e" cx="7" cy="7.5" rx="7" ry="7.5" transform="translate(84.063 22.5)"/><circle class="e" cx="7.5" cy="7.5" r="7.5" transform="translate(67.063 5.5)"/><ellipse class="e" cx="7" cy="7.5" rx="7" ry="7.5" transform="translate(45.063 -0.5)"/></g></svg>