<svg xmlns="http://www.w3.org/2000/svg" width="35.127" height="35.127" viewBox="0 0 35.127 35.127"><defs><style>.a{fill:#d5d5ff;fill-rule:evenodd;}</style></defs><path class="a" d="M17.563,0A17.563,17.563,0,1,1,0,17.563,17.572,17.572,0,0,1,17.563,0ZM12.072,27.434V13.718H7.512V27.434Zm16.44,0V19.568c0-4.213-2.249-6.173-5.249-6.173a4.528,4.528,0,0,0-4.109,2.265V13.718H14.6c.06,1.287,0,13.716,0,13.716h4.559v-7.66a3.117,3.117,0,0,1,.15-1.113,2.5,2.5,0,0,1,2.339-1.667c1.649,0,2.31,1.258,2.31,3.1v7.339h4.559ZM9.823,7.1a2.376,2.376,0,1,0-.06,4.74h.029A2.377,2.377,0,1,0,9.823,7.1Z"/></svg>