<svg xmlns="http://www.w3.org/2000/svg" width="102" height="102" viewBox="0 0 102 102"><defs><style>.a,.e{fill:none;}.a,.d{stroke:#4e4e4e;}.a,.d,.e{stroke-miterlimit:10;stroke-width:2px;}.b{fill:#f37753;}.c{fill:#f2f2f2;}.d{fill:#aaa;}.e{stroke:#524a4d;}</style></defs><g transform="translate(1 1)"><line class="a" y2="90" transform="translate(50 5)"/><line class="a" y1="76" x2="45" transform="translate(28 12)"/><line class="a" y1="45" x2="76" transform="translate(12 28)"/><line class="a" x1="90" transform="translate(5 50)"/><line class="a" x2="45" y2="76" transform="translate(28 12)"/><line class="a" x1="76" y1="45" transform="translate(12 28)"/><ellipse class="b" cx="5" cy="4.5" rx="5" ry="4.5" transform="translate(83 23)"/><circle class="b" cx="4.5" cy="4.5" r="4.5" transform="translate(68 8)"/><circle class="b" cx="5" cy="5" r="5" transform="translate(45)"/><ellipse class="b" cx="5" cy="4.5" rx="5" ry="4.5" transform="translate(83 68)"/><circle class="b" cx="4.5" cy="4.5" r="4.5" transform="translate(8 23)"/><circle class="b" cx="4.5" cy="4.5" r="4.5" transform="translate(8 68)"/><ellipse class="b" cx="5" cy="4.5" rx="5" ry="4.5" transform="translate(45 91)"/><ellipse class="b" cx="4.5" cy="5" rx="4.5" ry="5" transform="translate(68 83)"/><circle class="b" cx="4.5" cy="4.5" r="4.5" transform="translate(23 8)"/><ellipse class="b" cx="4.5" cy="5" rx="4.5" ry="5" transform="translate(23 83)"/><ellipse class="b" cx="4.5" cy="5" rx="4.5" ry="5" transform="translate(91 45)"/><circle class="b" cx="5" cy="5" r="5" transform="translate(0 45)"/><circle class="c" cx="28.5" cy="28.5" r="28.5" transform="translate(22 22)"/><ellipse class="a" cx="5" cy="4.5" rx="5" ry="4.5" transform="translate(83 23)"/><circle class="a" cx="4.5" cy="4.5" r="4.5" transform="translate(68 8)"/><circle class="a" cx="5" cy="5" r="5" transform="translate(45)"/><ellipse class="a" cx="5" cy="4.5" rx="5" ry="4.5" transform="translate(83 68)"/><circle class="a" cx="4.5" cy="4.5" r="4.5" transform="translate(8 23)"/><circle class="a" cx="4.5" cy="4.5" r="4.5" transform="translate(8 68)"/><ellipse class="a" cx="5" cy="4.5" rx="5" ry="4.5" transform="translate(45 91)"/><ellipse class="a" cx="4.5" cy="5" rx="4.5" ry="5" transform="translate(68 83)"/><circle class="a" cx="4.5" cy="4.5" r="4.5" transform="translate(23 8)"/><ellipse class="a" cx="4.5" cy="5" rx="4.5" ry="5" transform="translate(23 83)"/><ellipse class="a" cx="4.5" cy="5" rx="4.5" ry="5" transform="translate(91 45)"/><circle class="a" cx="5" cy="5" r="5" transform="translate(0 45)"/><circle class="d" cx="23.5" cy="23.5" r="23.5" transform="translate(27 27)"/><line class="e" y2="47" transform="translate(50 27)"/><line class="a" x1="47" transform="translate(27 50)"/><ellipse class="a" cx="13" cy="23.5" rx="13" ry="23.5" transform="translate(37 27)"/></g></svg>