<svg xmlns="http://www.w3.org/2000/svg" width="103" height="102" viewBox="0 0 103 102"><defs><style>.a{fill:#f37753;}.b,.c{fill:none;stroke-miterlimit:10;stroke-width:2px;}.b{stroke:#4e4e4e;}.c{stroke:#a8a0a2;}.d{fill:#aaa;}</style></defs><g transform="translate(0 1)"><rect class="a" width="32" height="31" transform="translate(71 69)"/><rect class="a" width="32" height="21" transform="translate(35 79)"/><rect class="a" width="32" height="12" transform="translate(0 88)"/><line class="b" x2="32" transform="translate(71 100)"/><line class="b" x2="32" transform="translate(35 100)"/><line class="b" x2="32" transform="translate(0 100)"/><line class="c" x1="3" transform="translate(13 84)"/><line class="c" x1="4" transform="translate(6 84)"/><line class="c" x1="4" transform="translate(0 84)"/><path class="d" d="M45.236,32.83l3.2-11.212,12.813-1.6L74.066,7.2,70.863,4,58.049,13.61H48.44l-11.212-1.6-14.415,1.6L10,28.025l3.2,3.2L24.415,20.016h8.008V34.431l-4.8,16.016L13.2,64.863l3.2,4.8L34.025,56.854l8.008-12.813,12.813,1.6L69.261,60.058l4.8-4.8L59.651,37.635Z" transform="translate(6.113 1.154)"/><path class="b" d="M27,29l17.618,1.6L59.033,45.016" transform="translate(16.341 16.195)"/><path class="b" d="M14,54.626,31.618,41.813,39.626,29" transform="translate(8.519 16.195)"/><path class="b" d="M32.821,14h-9.61L12,25.212" transform="translate(7.316 7.17)"/><ellipse class="b" cx="6.5" cy="7" rx="6.5" ry="7" transform="translate(43)"/><path class="b" d="M32,31.626l3.2-11.212,12.813-1.6L60.83,6" transform="translate(19.349 2.357)"/></g></svg>