<svg xmlns="http://www.w3.org/2000/svg" width="125.747" height="125.747" viewBox="0 0 125.747 125.747"><defs><style>.a{fill:#fff;}.b,.c{fill:none;stroke-miterlimit:10;stroke-width:2px;}.b{stroke:#75dbd0;}.c{stroke:#524a4d;}.d{fill:#ff7652;}</style></defs><g transform="translate(1 1)"><circle class="a" cx="54.074" cy="54.074" r="54.074" transform="translate(7.799 7.799)"/><circle class="b" cx="54.074" cy="54.074" r="54.074" transform="translate(7.799 7.799)"/><path class="c" d="M168.314,1798.955a61.878,61.878,0,0,1,99.169,73.625" transform="translate(-153.716 -1777)"/><path class="c" d="M270.149,1864.849A61.878,61.878,0,0,1,171.125,1791" transform="translate(-161 -1763.057)"/><path class="c" d="M179.976,1793.976H168V1782" transform="translate(-154.029 -1772.021)"/><path class="c" d="M210,1828h11.976v11.976" transform="translate(-112.2 -1726.208)"/><g transform="translate(39.918 39.918)"><path class="d" d="M196.967,1807,181,1814.984v7.984a5.987,5.987,0,0,0,5.988,5.988h31.935a5.987,5.987,0,0,0,5.988-5.988v-7.984L208.943,1807Z" transform="translate(-181 -1787.041)"/><path class="a" d="M206.959,1806.979c0-3.992-2-9.979-9.98-9.979s-9.98,5.988-9.98,9.979v2c0,5.988,3.992,11.975,9.98,11.975s9.98-5.988,9.98-11.975Z" transform="translate(-175.024 -1797)"/><path class="c" d="M206.959,1806.979c0-3.992-2-9.979-9.98-9.979s-9.98,5.988-9.98,9.979v2c0,5.988,3.992,11.975,9.98,11.975s9.98-5.988,9.98-11.975Z" transform="translate(-175.024 -1797)"/></g></g></svg>