<svg xmlns="http://www.w3.org/2000/svg" width="135.916" height="134.083" viewBox="0 0 135.916 134.083"><defs><style>.a{fill:#fff;}.b,.e,.f,.g,.h,.i{fill:none;}.c{fill:#ff7652;}.d{fill:#75b8fa;}.e,.f,.g{stroke:#524a4d;}.e,.f,.h,.i{stroke-miterlimit:10;}.e,.f,.g,.h,.i{stroke-width:2px;}.f,.g,.h{stroke-linecap:round;}.g{stroke-linejoin:round;}.h{stroke:#fff;}.i{stroke:#a8a0a2;}</style></defs><g transform="translate(0 1.414)"><path class="a" d="M12.371,54.979H8.124L6,52.855,37.855,21,42.1,25.247Z" transform="translate(6.742 21.474)"/><path class="a" d="M99.576,52.855,78.34,74.092,52.855,48.608,48.608,37.99H42.237L29.495,50.732A8.5,8.5,0,0,1,21,42.237l16.99-16.99H63.474L67.721,21Z" transform="translate(23.598 21.474)"/><path class="a" d="M50.1,79.979S47.979,82.1,45.855,82.1a6.373,6.373,0,0,1-6.371-6.371c0-2.124,2.124-4.247,2.124-4.247s-2.124,2.124-4.247,2.124a6.373,6.373,0,0,1-6.371-6.371c0-2.124,2.124-4.247,2.124-4.247s-2.124,2.124-4.247,2.124a6.373,6.373,0,0,1-6.371-6.371c0-2.124,2.124-4.247,2.124-4.247s-2.124,2.124-4.247,2.124A6.373,6.373,0,0,1,14,50.247C14,48.124,16.124,46,16.124,46Z" transform="translate(15.731 49.566)"/><path class="b" d="M53.721,23,36.732,39.99a8.5,8.5,0,0,0,8.495,8.495L57.969,35.742H64.34l4.247,10.618L96.195,73.969s2.124,2.124,2.124,4.247a6.373,6.373,0,0,1-6.371,6.371c-2.124,0-4.247-2.124-4.247-2.124l4.247,4.247s2.124,2.124,2.124,4.247A6.373,6.373,0,0,1,87.7,97.329c-2.124,0-4.247-2.124-4.247-2.124l-2.124-2.124s2.124,2.124,2.124,4.247a6.373,6.373,0,0,1-6.371,6.371c-2.124,0-4.247-2.124-4.247-2.124l-4.247-4.247s2.124,2.124,2.124,4.247a6.373,6.373,0,0,1-6.371,6.371c-2.124,0-4.247-2.124-4.247-2.124L13.371,59.1,7,52.732h4.247L40.979,23Z" transform="translate(7.866 23.721)"/><path class="c" d="M85.474,1,43,43.474,74.855,75.329,85.474,64.711H87.6V1Z" transform="translate(48.318 -1)"/><path class="d" d="M2.124,1,44.6,43.474,12.742,75.329,2.124,64.711H0V1Z" transform="translate(0 -1)"/><line class="e" x2="38.467" transform="translate(48.724 46.601)"/><line class="f" x1="11.54" y2="12.822" transform="translate(102.577 82.503)"/><path class="f" d="M32,50.495,55.361,73.855s2.124,2.124,4.247,2.124a6.373,6.373,0,0,0,6.371-6.371c0-2.124-2.124-4.247-2.124-4.247L40.495,42" transform="translate(35.958 45.071)"/><path class="f" d="M57.732,62.742s2.124,2.124,2.124,4.247a6.373,6.373,0,0,1-6.371,6.371c-2.124,0-4.247-2.124-4.247-2.124L28,50" transform="translate(31.463 54.061)"/><path class="f" d="M65.216,78.226s2.124,2.124,2.124,4.247a6.373,6.373,0,0,1-6.371,6.371c-2.124,0-4.247-2.124-4.247-2.124L10,40" transform="translate(11.237 42.824)"/><path class="f" d="M24.618,54.495s-2.124,2.124-4.247,2.124A6.373,6.373,0,0,1,14,50.247C14,48.124,16.124,46,16.124,46" transform="translate(15.731 49.566)"/><path class="f" d="M28.618,58.495s-2.124,2.124-4.247,2.124A6.373,6.373,0,0,1,18,54.247C18,52.124,20.124,50,20.124,50" transform="translate(20.227 54.061)"/><path class="f" d="M32.618,62.495s-2.124,2.124-4.247,2.124A6.373,6.373,0,0,1,22,58.247C22,56.124,24.124,54,24.124,54" transform="translate(24.722 58.555)"/><path class="f" d="M36.618,66.495s-2.124,2.124-4.247,2.124A6.373,6.373,0,0,1,26,62.247C26,60.124,28.124,58,28.124,58" transform="translate(29.216 63.05)"/><path class="e" d="M50.742,33a6.373,6.373,0,0,1-6.371,6.371H38" transform="translate(42.7 34.958)"/><path class="g" d="M1,64.711,13.742,77.453H17.99L47.721,47.721,1,1" transform="translate(1.124 -1)"/><path class="g" d="M87.721,64.711,74.979,77.453H70.732L41,47.721,87.721,1" transform="translate(46.071 -1)"/><line class="h" y1="5.129" x2="3.847" transform="translate(123.093 56.859)"/><line class="h" x2="3.847" y2="5.129" transform="translate(12.821 56.859)"/><path class="f" d="M71.969,82.463s2.124,2.124,4.247,2.124a6.373,6.373,0,0,0,6.371-6.371c0-2.124-2.124-4.247-2.124-4.247L52.855,46.361,48.608,35.742H42.237L29.495,48.484A8.5,8.5,0,0,1,21,39.99L37.99,23" transform="translate(23.598 23.721)"/><line class="i" x2="5.129" transform="translate(65.394 33.779)"/><line class="i" x2="3.847" transform="translate(74.368 33.779)"/><line class="i" x2="3.847" transform="translate(57.699 33.779)"/></g></svg>