<svg xmlns="http://www.w3.org/2000/svg" width="101.83" height="125.789" viewBox="0 0 101.83 125.789"><defs><style>.a{fill:#fff;}.b{fill:#e2dddf;}.c,.d,.f{fill:none;stroke-width:2px;}.c,.f{stroke:#524a4d;}.c,.d{stroke-miterlimit:10;}.d{stroke:#a8a0a2;}.e{fill:#ff7652;}.f{stroke-linejoin:round;}</style></defs><g transform="translate(0.649 1)"><g transform="translate(0.242)"><rect class="a" width="84" height="111" transform="translate(-0.242 13.008)"/><path class="a" d="M1458.942,2044.979a11.98,11.98,0,0,0-23.959,0H1425v7.986h43.925v-7.986Z" transform="translate(-1404.925 -2033)"/><rect class="b" width="72" height="99" transform="translate(5.758 19.007)"/><path class="c" d="M1484.881,2039h13.976v111.809H1415V2039h13.976" transform="translate(-1414.891 -2027.021)"/><line class="c" x2="5" transform="translate(39.758 13.008)"/><g transform="translate(17.246 38.218)"><line class="d" x2="6" transform="translate(-0.489 -0.21)"/><line class="d" x2="39" transform="translate(9.511 -0.21)"/><line class="d" x2="6" transform="translate(-0.489 7.79)"/><line class="d" x2="39" transform="translate(9.511 7.79)"/><line class="d" x2="6" transform="translate(-0.489 14.79)"/><line class="d" x2="39" transform="translate(9.511 14.79)"/><line class="d" x2="6" transform="translate(-0.489 23.79)"/><line class="d" x2="39" transform="translate(9.511 23.79)"/><line class="d" x2="6" transform="translate(-0.489 32.79)"/><line class="d" x2="39" transform="translate(9.511 32.79)"/></g><line class="d" x1="3" transform="translate(62.758 90.008)"/><line class="d" x1="17" transform="translate(41.758 90.008)"/><path class="c" d="M1458.942,2044.979a11.98,11.98,0,0,0-23.959,0H1425v7.986h43.925v-7.986Z" transform="translate(-1404.925 -2033)"/><g transform="translate(91.3 11.98)"><rect class="b" width="9" height="8" transform="translate(0.458 1.028)"/><path class="e" d="M1461,2043h7.987v95.837l-3.993,7.987-3.993-7.987Z" transform="translate(-1460.348 -2035.013)"/><rect class="b" width="9" height="15" transform="translate(0.458 78.028)"/><path class="f" d="M1461,2039h7.987v103.823l-3.993,7.987-3.993-7.987Z" transform="translate(-1460.348 -2039)"/><line class="c" x2="9" transform="translate(0.458 93.028)"/><line class="c" x2="9" transform="translate(0.458 78.028)"/><line class="c" x2="9" transform="translate(0.458 9.028)"/></g></g></g></svg>