<svg xmlns="http://www.w3.org/2000/svg" width="99.584" height="100.158" viewBox="0 0 99.584 100.158"><defs><style>.a,.c,.d{fill:none;}.a{stroke:#ff7652;}.a,.c{stroke-miterlimit:10;stroke-width:2px;}.b{fill:#aaa;}.c{stroke:#4e4e4e;}</style></defs><g transform="translate(1 1)"><path class="a" d="M54.514,15.165C60.148,6.493,67.105,1,76.549,1a22.035,22.035,0,1,1,0,44.07c-9.444,0-16.4-5.493-22.035-14.165L45.07,15.165C39.435,6.493,32.479,1,23.035,1a22.035,22.035,0,1,0,0,44.07c9.444,0,16.4-5.493,22.035-14.165" transform="translate(-1 -1)"/><path class="b" d="M35.053,24H9.87A7.87,7.87,0,0,0,2,31.87V69.644H9.87V64.922H35.053v4.722h7.87V31.87A7.87,7.87,0,0,0,35.053,24Z" transform="translate(-0.426 12.2)"/><line class="c" y2="14.165" transform="translate(22.134 84.992)"/><line class="c" y2="50.464" transform="translate(9.739 48.694)"/><line class="c" y1="50.464" transform="translate(34.528 48.694)"/><line class="c" x2="24.789" transform="translate(9.739 77.024)"/><ellipse class="d" cx="9.739" cy="9.296" rx="9.739" ry="9.296" transform="translate(65.515 13.28)"/><path class="b" d="M69.053,24H43.87A7.87,7.87,0,0,0,36,31.87V69.644h7.87V64.922H69.053v4.722h7.87V31.87A7.87,7.87,0,0,0,69.053,24Z" transform="translate(19.088 12.2)"/><line class="c" y2="14.165" transform="translate(75.254 84.992)"/><line class="c" y2="50.464" transform="translate(62.859 48.694)"/><line class="c" y1="50.464" transform="translate(87.648 48.694)"/><line class="c" x2="24.789" transform="translate(62.859 77.024)"/><ellipse class="c" cx="9.739" cy="9.296" rx="9.739" ry="9.296" transform="translate(65.515 13.28)"/><ellipse class="c" cx="9.739" cy="9.296" rx="9.739" ry="9.296" transform="translate(12.395 13.28)"/></g></svg>