<svg xmlns="http://www.w3.org/2000/svg" width="119" height="119" viewBox="0 0 119 119"><defs><style>.a{fill:#ff7652;}.b,.d,.f{fill:none;stroke-miterlimit:10;stroke-width:2px;}.b,.d{stroke:#524a4d;}.b{stroke-linecap:round;}.c{fill:#fff;}.e{fill:#73dce0;}.f{stroke:#a8a0a2;}</style></defs><rect class="a" width="29" height="97" transform="translate(31 11)"/><ellipse class="a" cx="11.5" cy="10.5" rx="11.5" ry="10.5" transform="translate(37 98)"/><circle class="a" cx="15" cy="15" r="15" transform="translate(7 65)"/><ellipse class="a" cx="17" cy="17.5" rx="17" ry="17.5" transform="translate(0 42)"/><ellipse class="a" cx="13" cy="13.5" rx="13" ry="13.5" transform="translate(22 84)"/><ellipse class="a" cx="11.5" cy="11" rx="11.5" ry="11" transform="translate(37)"/><circle class="a" cx="15" cy="15" r="15" transform="translate(7 24)"/><ellipse class="a" cx="13" cy="13.5" rx="13" ry="13.5" transform="translate(22 8)"/><path class="b" d="M169,519a16.951,16.951,0,1,1,0,33.9" transform="translate(-152.429 -476.325)"/><circle class="c" cx="5.5" cy="5.5" r="5.5" transform="translate(11 54)"/><circle class="d" cx="5.5" cy="5.5" r="5.5" transform="translate(11 54)"/><circle class="c" cx="5.5" cy="5.5" r="5.5" transform="translate(40 69)"/><circle class="c" cx="5.5" cy="5.5" r="5.5" transform="translate(40 40)"/><ellipse class="d" cx="2.5" cy="2" rx="2.5" ry="2" transform="translate(46 107)"/><circle class="d" cx="5.5" cy="5.5" r="5.5" transform="translate(40 69)"/><circle class="d" cx="5.5" cy="5.5" r="5.5" transform="translate(40 40)"/><ellipse class="e" cx="11" cy="11.5" rx="11" ry="11.5" transform="translate(96 48)"/><ellipse class="d" cx="11" cy="11.5" rx="11" ry="11.5" transform="translate(96 48)"/><circle class="d" cx="4.5" cy="4.5" r="4.5" transform="translate(102 55)"/><ellipse class="d" cx="2.5" cy="2" rx="2.5" ry="2" transform="translate(46 8)"/><line class="d" x1="74" transform="translate(22 59)"/><path class="d" d="M237.854,549.184,224.67,536H187" transform="translate(-136.526 -461.306)"/><path class="b" d="M180,559.3A11.3,11.3,0,0,1,191.3,548" transform="translate(-142.711 -450.704)"/><path class="b" d="M180,502a11.3,11.3,0,0,0,11.3,11.3" transform="translate(-142.711 -491.344)"/><path class="d" d="M237.854,513,224.67,526.184H187" transform="translate(-136.526 -481.626)"/><ellipse class="e" cx="7" cy="8" rx="7" ry="8" transform="translate(94 24)"/><ellipse class="d" cx="7" cy="8" rx="7" ry="8" transform="translate(94 24)"/><circle class="e" cx="5.5" cy="5.5" r="5.5" transform="translate(77 1)"/><circle class="d" cx="5.5" cy="5.5" r="5.5" transform="translate(77 1)"/><ellipse class="e" cx="7" cy="7.5" rx="7" ry="7.5" transform="translate(94 80)"/><ellipse class="d" cx="7" cy="7.5" rx="7" ry="7.5" transform="translate(94 80)"/><circle class="e" cx="5.5" cy="5.5" r="5.5" transform="translate(77 107)"/><circle class="d" cx="5.5" cy="5.5" r="5.5" transform="translate(77 107)"/><line class="f" x2="3" transform="translate(64 52)"/><line class="f" x2="3" transform="translate(72 52)"/><line class="f" x2="5" transform="translate(78 52)"/><line class="f" x2="3" transform="translate(64 67)"/><line class="f" x2="3" transform="translate(64 94)"/><line class="f" x2="3" transform="translate(64 101)"/><line class="f" x2="3" transform="translate(64 18)"/><line class="f" x2="3" transform="translate(64 25)"/><line class="f" x2="3" transform="translate(72 67)"/><line class="f" x2="5" transform="translate(78 67)"/><path class="d" d="M194,542h15.068l3.767,3.767v16.951" transform="translate(-130.342 -456.005)"/><path class="d" d="M194,523.718h15.068l3.767-3.767V503" transform="translate(-130.342 -490.46)"/></svg>