<svg xmlns="http://www.w3.org/2000/svg" width="108.19" height="107.224" viewBox="0 0 108.19 107.224"><defs><style>.a,.d,.e,.f,.g{fill:none;}.b{fill:#f37753;}.c{fill:#777;}.d{stroke:#eaeced;}.d,.f,.g{stroke-linecap:round;}.d,.e,.f{stroke-miterlimit:10;}.d,.e,.f,.g{stroke-width:2px;}.e,.f,.g{stroke:#4e4e4e;}.g{stroke-linejoin:round;}</style></defs><g transform="translate(-1412.042 -1971.586)"><path class="a" d="M44.19,23,30.667,36.524a6.762,6.762,0,0,0,6.762,6.762L47.571,33.143h5.071L56.024,41.6,78,63.571s1.69,1.69,1.69,3.381a5.073,5.073,0,0,1-5.071,5.071c-1.69,0-3.381-1.69-3.381-1.69l3.381,3.381s1.69,1.69,1.69,3.381a5.073,5.073,0,0,1-5.071,5.071c-1.69,0-3.381-1.69-3.381-1.69l-1.69-1.69s1.69,1.69,1.69,3.381a5.073,5.073,0,0,1-5.071,5.071c-1.69,0-3.381-1.69-3.381-1.69l-3.381-3.381s1.69,1.69,1.69,3.381a5.073,5.073,0,0,1-5.071,5.071c-1.69,0-3.381-1.69-3.381-1.69l-37.19-37.19L7,46.667h3.381L34.048,23Z" transform="translate(1416.876 1987.19)"/><path class="b" d="M76.809,1,43,34.809,68.357,60.166l8.452-8.452H78.5V1Z" transform="translate(1441.732 1972)"/><path class="c" d="M1.69,1,35.5,34.809,10.143,60.166,1.69,51.714H0V1Z" transform="translate(1412.042 1972)"/><line class="d" y1="4.083" x2="3.062" transform="translate(1510.025 2018.26)"/><line class="d" x2="3.062" y2="4.083" transform="translate(1422.248 2018.26)"/><line class="e" x2="30.62" transform="translate(1450.826 2010.095)"/><line class="f" x1="9.186" y2="10.207" transform="translate(1493.694 2038.673)"/><path class="f" d="M32,48.762l18.6,18.6s1.69,1.69,3.381,1.69a5.073,5.073,0,0,0,5.071-5.071c0-1.69-1.69-3.381-1.69-3.381L38.762,42" transform="translate(1434.137 2000.31)"/><path class="f" d="M51.667,60.143s1.69,1.69,1.69,3.381A5.073,5.073,0,0,1,48.286,68.6C46.6,68.6,44.9,66.9,44.9,66.9L28,50" transform="translate(1431.375 2005.833)"/><path class="f" d="M53.952,70.428s1.69,1.69,1.69,3.381a5.073,5.073,0,0,1-5.071,5.071c-1.69,0-3.381-1.69-3.381-1.69L10,40" transform="translate(1418.947 1998.928)"/><path class="f" d="M22.452,52.762s-1.69,1.69-3.381,1.69A5.073,5.073,0,0,1,14,49.381C14,47.69,15.69,46,15.69,46" transform="translate(1421.708 2003.071)"/><path class="f" d="M26.452,56.762s-1.69,1.69-3.381,1.69A5.073,5.073,0,0,1,18,53.381C18,51.69,19.69,50,19.69,50" transform="translate(1424.471 2005.833)"/><path class="f" d="M30.452,60.762s-1.69,1.69-3.381,1.69A5.073,5.073,0,0,1,22,57.381C22,55.69,23.69,54,23.69,54" transform="translate(1427.233 2008.595)"/><path class="f" d="M34.452,64.762s-1.69,1.69-3.381,1.69A5.073,5.073,0,0,1,26,61.381C26,59.69,27.69,58,27.69,58" transform="translate(1429.994 2011.357)"/><path class="e" d="M48.143,33a5.073,5.073,0,0,1-5.071,5.071H38" transform="translate(1438.28 1994.095)"/><path class="g" d="M1,51.714,11.143,61.857h3.381L38.19,38.19,1,1" transform="translate(1412.733 1972)"/><path class="g" d="M78.19,51.714,68.048,61.857H64.667L41,38.19,78.19,1" transform="translate(1440.351 1972)"/><path class="f" d="M61.571,70.333s1.69,1.69,3.381,1.69a5.073,5.073,0,0,0,5.071-5.071c0-1.69-1.69-3.381-1.69-3.381L46.357,41.6l-3.381-8.452H37.9L27.762,43.286A6.762,6.762,0,0,1,21,36.524L34.524,23" transform="translate(1426.542 1987.19)"/></g></svg>