<svg xmlns="http://www.w3.org/2000/svg" width="110" height="111" viewBox="0 0 110 111"><defs><style>.a{fill:#aaa;}.b{fill:#777;}.c{fill:#f37753;}.d{fill:#facf6c;}.e{fill:#eaeced;}.f{fill:none;stroke:#4e4e4e;stroke-miterlimit:10;stroke-width:2px;}</style></defs><g transform="translate(1)"><path class="a" d="M85.206,12H16V76.016H99.048V25.841A13.841,13.841,0,0,0,85.206,12Z" transform="translate(9.952 8.762)"/><path class="b" d="M21.841,12A13.841,13.841,0,0,0,8,25.841V76.016H35.683V25.841A13.841,13.841,0,0,0,21.841,12Z" transform="translate(4.111 8.762)"/><rect class="b" width="13" height="26" transform="translate(54 85)"/><rect class="c" width="21" height="14" transform="translate(52)"/><rect class="d" width="40" height="38" transform="translate(0 36)"/><path class="e" d="M40.794,31.381H11.381L1,21H40.794Z" transform="translate(-1 15.333)"/><g transform="translate(-1)"><line class="f" y2="36" transform="translate(53)"/><circle class="f" cx="3.5" cy="3.5" r="3.5" transform="translate(49 36)"/><path class="f" d="M40.794,59.063H1V21H40.794" transform="translate(0 15.333)"/><path class="f" d="M40.794,31.381H11.381L1,21" transform="translate(0 15.333)"/><line class="f" x1="4" transform="translate(13 67)"/><line class="f" x1="4" transform="translate(6 67)"/><line class="f" x2="97" transform="translate(13 85)"/><line class="f" x1="55" transform="translate(48 74)"/><line class="f" x1="13" transform="translate(55 92)"/></g></g></svg>