<svg xmlns="http://www.w3.org/2000/svg" width="110" height="99.619" viewBox="0 0 110 99.619"><defs><style>.a{fill:#eaeced;}.b{fill:#ff7652;}.c,.d{fill:none;stroke-miterlimit:10;stroke-width:2px;}.c{stroke:#aaa;}.d{stroke:#4e4e4e;}</style></defs><g transform="translate(0 1)"><path class="a" d="M64.254,68.016V83.587h1.73L81.556,68.016h8.651a3.46,3.46,0,0,0,3.46-3.46V7.46A3.46,3.46,0,0,0,90.206,4H46.952a11.679,11.679,0,0,0-10.381,6.921L21,43.794v1.73h8.651V64.556a3.46,3.46,0,0,0,3.46,3.46Z" transform="translate(15.333 -4)"/><path class="b" d="M48.444,15c8.651,0,10.381,5.19,15.571,15.571h0l8.651,17.3V49.6H64.016V73.825a3.46,3.46,0,0,1-3.46,3.46H34.6v17.3h-1.73l-17.3-17.3H3.46A3.46,3.46,0,0,1,0,73.825V18.46A3.46,3.46,0,0,1,3.46,15Z" transform="translate(0 4.032)"/><line class="c" x1="31.406" transform="translate(69.31 20.576)"/><line class="c" x1="10.83" transform="translate(89.887 27.074)"/><line class="c" x1="14.079" transform="translate(66.061 14.079)"/><path class="d" d="M52.143,68.016H64.254V83.587h1.73L81.556,68.016h8.651a3.46,3.46,0,0,0,3.46-3.46V7.46A3.46,3.46,0,0,0,90.206,4H46.952a11.679,11.679,0,0,0-10.381,6.921L21,43.794v1.73h8.651V64.556a3.46,3.46,0,0,0,3.46,3.46H48.683" transform="translate(15.333 -4)"/><line class="d" x1="3.249" transform="translate(19.494 51.982)"/><line class="d" x1="3.249" transform="translate(25.991 51.982)"/><line class="d" x1="4.332" transform="translate(32.489 51.982)"/><line class="c" x1="17.328" transform="translate(83.389 14.079)"/><line class="c" x1="14.079" transform="translate(72.559 27.074)"/></g></svg>