<svg xmlns="http://www.w3.org/2000/svg" width="110" height="125.955" viewBox="0 0 110 125.955"><defs><style>.a{fill:#aaa;}.b{fill:none;stroke:#4e4e4e;stroke-miterlimit:10;stroke-width:2px;}.c{fill:#f37753;}.d{fill:#fff;}.e{fill:#777;}</style></defs><g transform="translate(1 1)"><rect class="a" width="89.182" height="19.818" transform="translate(19.818 51.632)"/><line class="b" x2="4.172" transform="translate(45.373 61.541)"/><line class="b" x2="3.651" transform="translate(53.718 61.541)"/><line class="b" x2="4" transform="translate(62 61.281)"/><line class="b" x2="4.172" transform="translate(69.364 61.541)"/><line class="b" x2="4" transform="translate(77 61.281)"/><line class="b" x2="3.651" transform="translate(85.531 61.541)"/><rect class="a" width="89.182" height="19.818" transform="translate(19.818 95.44)"/><line class="b" x2="4.172" transform="translate(45.373 105.349)"/><line class="b" x2="3.651" transform="translate(53.718 105.349)"/><line class="b" x2="4" transform="translate(62 105.281)"/><line class="b" x2="4.172" transform="translate(69.364 105.349)"/><rect class="a" width="89.182" height="19.818" transform="translate(19.818 7.823)"/><path class="c" d="M18.884,12,5,17.95v9.917H44.668V17.95L30.784,12Z" transform="translate(-5 9.817)"/><path class="b" d="M31.884,27.867V17.95L18,12" transform="translate(7.784 9.817)"/><path class="b" d="M18.884,12,5,17.95v9.917" transform="translate(-5 9.817)"/><path class="d" d="M29.834,10.917C29.834,6.95,27.851,1,19.917,1S10,6.95,10,10.917V12.9c0,5.95,3.967,11.9,9.917,11.9s9.917-5.95,9.917-11.9Z" transform="translate(-0.083 -1)"/><path class="b" d="M29.834,10.917C29.834,6.95,27.851,1,19.917,1S10,6.95,10,10.917V12.9c0,5.95,3.967,11.9,9.917,11.9s9.917-5.95,9.917-11.9Z" transform="translate(-0.083 -1)"/><path class="e" d="M18.884,34,5,39.95v9.917H44.668V39.95L30.784,34Z" transform="translate(-5 31.452)"/><path class="b" d="M31.884,49.867V39.95L18,34" transform="translate(7.784 31.452)"/><path class="b" d="M18.884,34,5,39.95v9.917" transform="translate(-5 31.452)"/><path class="d" d="M29.834,32.917c0-3.967-1.983-9.917-9.917-9.917S10,28.95,10,32.917V34.9c0,5.95,3.967,11.9,9.917,11.9s9.917-5.95,9.917-11.9Z" transform="translate(-0.083 20.635)"/><path class="b" d="M29.834,32.917c0-3.967-1.983-9.917-9.917-9.917S10,28.95,10,32.917V34.9c0,5.95,3.967,11.9,9.917,11.9s9.917-5.95,9.917-11.9Z" transform="translate(-0.083 20.635)"/><path class="c" d="M18.884,56,5,61.95v9.917H44.668V61.95L30.784,56Z" transform="translate(-5 53.087)"/><path class="b" d="M31.884,71.867V61.95L18,56" transform="translate(7.784 53.087)"/><path class="b" d="M18.884,56,5,61.95v9.917" transform="translate(-5 53.087)"/><path class="d" d="M29.834,54.917c0-3.967-1.983-9.917-9.917-9.917S10,50.95,10,54.917V56.9c0,5.95,3.967,11.9,9.917,11.9s9.917-5.95,9.917-11.9Z" transform="translate(-0.083 42.27)"/><path class="b" d="M29.834,54.917c0-3.967-1.983-9.917-9.917-9.917S10,50.95,10,54.917V56.9c0,5.95,3.967,11.9,9.917,11.9s9.917-5.95,9.917-11.9Z" transform="translate(-0.083 42.27)"/><line class="b" x2="4.172" transform="translate(45.373 17.732)"/><line class="b" x2="3.651" transform="translate(53.718 17.732)"/><line class="b" x2="4" transform="translate(62 17.281)"/><line class="b" x2="4.172" transform="translate(69.364 17.732)"/><line class="b" x2="4" transform="translate(77 17.281)"/></g></svg>