<svg xmlns="http://www.w3.org/2000/svg" width="110.113" height="136.06" viewBox="0 0 110.113 136.06"><defs><style>.a,.b,.e{fill:none;stroke-width:2px;}.a,.e{stroke:#4e4e4e;}.a,.b{stroke-miterlimit:10;}.b{stroke:#aaa;}.c{fill:#f37753;}.d{fill:#aaa;}.e{stroke-linejoin:round;}</style></defs><g transform="translate(1 1)"><path class="a" d="M1490.679,2039h15.136v121.086H1415V2039h15.136" transform="translate(-1415 -2026.027)"/><g transform="translate(18.03 41.161)"><line class="b" x1="3.249" transform="translate(49.817 56.315)"/><g transform="translate(0 0)"><line class="b" x2="6.498" transform="translate(0 0)"/><line class="b" x2="42.236" transform="translate(10.83 0)"/><line class="b" x2="6.498" transform="translate(0 8.664)"/><line class="b" x2="42.236" transform="translate(10.83 8.664)"/><line class="b" x2="6.498" transform="translate(0 16.244)"/><line class="b" x2="42.236" transform="translate(10.83 16.244)"/><line class="b" x2="6.498" transform="translate(0 25.991)"/><line class="b" x2="42.236" transform="translate(10.83 25.991)"/><line class="b" x2="6.498" transform="translate(0 35.738)"/><line class="b" x2="42.236" transform="translate(10.83 35.738)"/></g><line class="b" x1="18.411" transform="translate(27.075 56.315)"/></g><path class="a" d="M1461.758,2045.973a12.974,12.974,0,0,0-25.947,0H1425v8.649h47.57v-8.649Z" transform="translate(-1403.378 -2033)"/><g transform="translate(99.253 12.974)"><path class="c" d="M1461,2043h8.649v103.788l-4.325,8.649-4.325-8.649Z" transform="translate(-1460.789 -2034.351)"/><rect class="d" width="9.747" height="16.245" transform="translate(0 84.502)"/><path class="e" d="M1461,2039h8.649v112.437l-4.325,8.649-4.325-8.649Z" transform="translate(-1460.789 -2039)"/><line class="a" x2="9.747" transform="translate(0 100.746)"/><line class="a" x2="9.747" transform="translate(0 84.502)"/><line class="a" x2="9.747" transform="translate(0 9.777)"/></g></g></svg>