<svg xmlns="http://www.w3.org/2000/svg" width="111" height="111.758" viewBox="0 0 111 111.758"><defs><style>.a{fill:#aaa;}.b,.d{fill:none;stroke-miterlimit:10;stroke-width:2px;}.b{stroke:#524a4d;}.c{fill:#eaeced;}.d{stroke:#ff7652;}.e{fill:#777;}.f{fill:#f37753;}</style></defs><g transform="translate(1 1)"><path class="a" d="M97.694,36,110,43.032V57.1H1V43.032L13.306,36H23.855l12.306,7.032h0L50.226,36H60.774l14.065,7.032h0L87.145,36Z" transform="translate(-1 25.532)"/><path class="b" d="M35,36l14.065,7.032h0L61.371,36" transform="translate(24.774 25.532)"/><path class="b" d="M14,36l12.306,7.032h0L40.371,36" transform="translate(8.855 25.532)"/><line class="b" y2="4.937" transform="translate(34.753 68.338)"/><path class="b" d="M1,57.1V43.032L13.306,36" transform="translate(-1 25.532)"/><path class="b" d="M68.306,57.1V43.032L56,36" transform="translate(40.694 25.532)"/><line class="b" y2="4.937" transform="translate(74.247 68.338)"/><path class="c" d="M65.581,33.79c0-3.516-1.758-8.79-8.79-8.79S48,30.274,48,33.79v1.758C48,40.823,51.516,46.1,56.79,46.1s8.79-5.274,8.79-10.548Z" transform="translate(34.629 17.194)"/><path class="b" d="M65.581,33.79c0-3.516-1.758-8.79-8.79-8.79S48,30.274,48,33.79v1.758C48,40.823,51.516,46.1,56.79,46.1s8.79-5.274,8.79-10.548Z" transform="translate(34.629 17.194)"/><path class="c" d="M44.581,33.79c0-3.516-1.758-8.79-8.79-8.79S27,30.274,27,33.79v1.758C27,40.823,30.516,46.1,35.79,46.1s8.79-5.274,8.79-10.548Z" transform="translate(18.71 17.194)"/><path class="b" d="M44.581,33.79c0-3.516-1.758-8.79-8.79-8.79S27,30.274,27,33.79v1.758C27,40.823,30.516,46.1,35.79,46.1s8.79-5.274,8.79-10.548Z" transform="translate(18.71 17.194)"/><path class="c" d="M23.581,33.79c0-3.516-1.758-8.79-8.79-8.79S6,30.274,6,33.79v1.758C6,40.823,9.516,46.1,14.79,46.1s8.79-5.274,8.79-10.548Z" transform="translate(2.79 17.194)"/><path class="b" d="M23.581,33.79c0-3.516-1.758-8.79-8.79-8.79S6,30.274,6,33.79v1.758C6,40.823,9.516,46.1,14.79,46.1s8.79-5.274,8.79-10.548Z" transform="translate(2.79 17.194)"/><line class="d" y1="30.855" transform="translate(17.474 6.628)"/><path class="d" d="M21.065,12.032,14.032,5,7,12.032" transform="translate(3.548 2.032)"/><line class="d" y1="30.855" transform="translate(91.526 6.628)"/><path class="d" d="M63.065,12.032,56.032,5,49,12.032" transform="translate(35.387 2.032)"/><path class="e" d="M97.694,52,110,59.032V73.1H1V59.032L13.306,52H23.855l12.306,7.032h0L50.226,52H60.774l14.065,7.032h0L87.145,52Z" transform="translate(-1 37.661)"/><path class="b" d="M35,52l14.065,7.032h0L61.371,52" transform="translate(24.774 37.661)"/><path class="b" d="M14,52l12.306,7.032h0L40.371,52" transform="translate(8.855 37.661)"/><line class="b" y2="4.937" transform="translate(34.753 96.725)"/><path class="b" d="M1,73.1V59.032L13.306,52" transform="translate(-1 37.661)"/><path class="b" d="M68.306,73.1V59.032L56,52" transform="translate(40.694 37.661)"/><line class="b" y2="4.937" transform="translate(74.247 96.725)"/><path class="c" d="M65.581,49.79c0-3.516-1.758-8.79-8.79-8.79S48,46.274,48,49.79v1.758C48,56.823,51.516,62.1,56.79,62.1s8.79-5.274,8.79-10.548Z" transform="translate(34.629 29.323)"/><path class="b" d="M65.581,49.79c0-3.516-1.758-8.79-8.79-8.79S48,46.274,48,49.79v1.758C48,56.823,51.516,62.1,56.79,62.1s8.79-5.274,8.79-10.548Z" transform="translate(34.629 29.323)"/><path class="c" d="M44.581,49.79c0-3.516-1.758-8.79-8.79-8.79S27,46.274,27,49.79v1.758C27,56.823,30.516,62.1,35.79,62.1s8.79-5.274,8.79-10.548Z" transform="translate(18.71 29.323)"/><path class="b" d="M44.581,49.79c0-3.516-1.758-8.79-8.79-8.79S27,46.274,27,49.79v1.758C27,56.823,30.516,62.1,35.79,62.1s8.79-5.274,8.79-10.548Z" transform="translate(18.71 29.323)"/><path class="c" d="M23.581,49.79c0-3.516-1.758-8.79-8.79-8.79S6,46.274,6,49.79v1.758C6,56.823,9.516,62.1,14.79,62.1s8.79-5.274,8.79-10.548Z" transform="translate(2.79 29.323)"/><path class="b" d="M23.581,49.79c0-3.516-1.758-8.79-8.79-8.79S6,46.274,6,49.79v1.758C6,56.823,9.516,62.1,14.79,62.1s8.79-5.274,8.79-10.548Z" transform="translate(2.79 29.323)"/><path class="f" d="M35.065,11,21,18.032v7.032a5.274,5.274,0,0,0,5.274,5.274H54.4a5.274,5.274,0,0,0,5.274-5.274V18.032L45.613,11Z" transform="translate(14.161 6.581)"/><path class="c" d="M44.581,9.79c0-3.516-1.758-8.79-8.79-8.79S27,6.274,27,9.79v1.758C27,16.823,30.516,22.1,35.79,22.1s8.79-5.274,8.79-10.548Z" transform="translate(18.71 -1)"/><path class="b" d="M44.581,9.79A9.686,9.686,0,0,0,42.4,3.565C41.281,2.19,39.131,1,35.79,1,28.758,1,27,6.274,27,9.79v1.758C27,16.823,30.516,22.1,35.79,22.1s8.79-5.274,8.79-10.548Z" transform="translate(18.71 -1)"/></g></svg>