<svg xmlns="http://www.w3.org/2000/svg" width="35.127" height="35.127" viewBox="0 0 35.127 35.127"><defs><style>.a{fill:#d5d5ff;fill-rule:evenodd;}</style></defs><path class="a" d="M17.563,0A17.563,17.563,0,1,1,0,17.563,17.572,17.572,0,0,1,17.563,0ZM28.082,12.279a2.749,2.749,0,0,0-1.941-1.941c-1.712-.459-8.578-.459-8.578-.459s-6.865,0-8.578.459a2.75,2.75,0,0,0-1.941,1.941,28.578,28.578,0,0,0-.459,5.284,28.575,28.575,0,0,0,.459,5.284,2.75,2.75,0,0,0,1.941,1.941c1.712.459,8.578.459,8.578.459s6.865,0,8.578-.459a2.749,2.749,0,0,0,1.941-1.941,28.575,28.575,0,0,0,.459-5.284A28.578,28.578,0,0,0,28.082,12.279ZM15.368,20.857V14.27l5.7,3.293-5.7,3.293Z"/></svg>